<svg xmlns="http://www.w3.org/2000/svg" xmlns:svg="http://www.w3.org/2000/svg" id="ac356da0-b129-4ca5-aecc-4700531dd101" width="1129" height="663" data-name="Layer 1" version="1.1" viewBox="0 0 1129 663"><metadata id="metadata83"/><title id="title2">docu_tree</title><circle style="fill:#f20063;fill-opacity:.24918135" id="circle4" cx="321" cy="321" r="321" fill="#f2f2f2"/><ellipse id="ellipse6" cx="559" cy="635.5" fill="#3f3d56" rx="514" ry="27.5"/><ellipse id="ellipse8" cx="558" cy="627" opacity=".2" rx="460" ry="22"/><rect id="rect10" width="840" height="50" x="131" y="152.5" fill="#3f3d56"/><path id="path12" fill="#3f3d56" d="M166.5,727.3299A21.67009,21.67009,0,0,0,188.1701,749H984.8299A21.67009,21.67009,0,0,0,1006.5,727.3299V296h-840Z" transform="translate(-35.5 -118.5)"/><path id="path14" fill="#3f3d56" d="M984.8299,236H188.1701A21.67009,21.67009,0,0,0,166.5,257.6701V296h840V257.6701A21.67009,21.67009,0,0,0,984.8299,236Z" transform="translate(-35.5 -118.5)"/><path id="path16" d="M984.8299,236H188.1701A21.67009,21.67009,0,0,0,166.5,257.6701V296h840V257.6701A21.67009,21.67009,0,0,0,984.8299,236Z" opacity=".2" transform="translate(-35.5 -118.5)"/><circle style="fill:#c63700;fill-opacity:1" id="circle18" cx="181" cy="147.5" r="13" fill="#3f3d56"/><path style="fill:#f20063;fill-opacity:.249181" id="circle4-6" d="M 361.62379,585.4651 C 360.70913,444.79129 451.49643,319.91218 585.59338,277.39202 719.69033,234.87186 865.27335,470.65913 945.58685,586.15674"/><circle style="fill:#f1e900;fill-opacity:1" id="circle20" cx="217" cy="147.5" r="13" fill="#3f3d56"/><circle style="fill:#00c400;fill-opacity:1" id="circle22" cx="253" cy="147.5" r="13" fill="#3f3d56"/><rect id="rect967" width="787.612" height="393.806" x="157.974" y="192.351" rx="6.696" ry="7.564" style="fill:#000;fill-opacity:.44994235;stroke:none;stroke-width:6.93921;stroke-linecap:round"/><g id="g900" transform="matrix(0.92479483,0.03109692,-0.03109692,0.92479483,83.522066,-479.364)"><circle style="fill:#ff004b;fill-opacity:1;stroke-width:.264583" id="path826-4-0-8-7" cx="318.576" cy="935.34" r="89.936"/><g id="g1002-7-6-4" transform="translate(4.6869099,823.15654)"><circle id="path826-3-46-8-6-8" cx="313.679" cy="112.183" r="93.678" style="fill:#acac00;fill-opacity:0;stroke-width:.275591"/><circle id="path826-3-4-3-4-6" cx="314.456" cy="112.448" r="93.678" style="fill:#0f3000;fill-opacity:0;stroke-width:.275591"/><path id="path894-8-5-4-6" d="m 311.64137,52.260417 c -34.784,0.464848 -73.94392,56.493923 -57.45238,87.123513 18.69522,34.72246 100.07698,34.96918 118.30654,0 16.37519,-31.41198 -25.43333,-87.596872 -60.85416,-87.123513 z" style="fill:#d6d6d6;fill-opacity:1;stroke:none;stroke-width:.264583px;stroke-linecap:butt;stroke-linejoin:miter;stroke-opacity:1"/><path id="path894-80-6-7" d="m 311.37627,52.260212 c -30.2398,0.432739 -64.28385,52.591648 -49.94677,81.105518 16.25286,32.32403 87.00288,32.5537 102.85092,0 14.23593,-29.24222 -22.11071,-81.54618 -52.90415,-81.105518 z" style="fill:#ececec;fill-opacity:1;stroke:none;stroke-width:.238023px;stroke-linecap:butt;stroke-linejoin:miter;stroke-opacity:1"/><circle id="path896-1-25-3-0" cx="285.278" cy="125.682" r="15.025" style="fill:#0073ff;fill-opacity:1;stroke:none;stroke-width:.359562"/><circle id="path896-12-2-55" cx="285.278" cy="125.682" r="11.056" style="fill:#00002d;fill-opacity:1;stroke:none;stroke-width:.264583"/><circle id="path896-1-2-3-2-48" cx="340.84" cy="125.418" r="15.025" style="fill:#0073ff;fill-opacity:1;stroke:none;stroke-width:.359562"/><circle id="path896-4-0-9-6" cx="340.462" cy="125.682" r="11.056" style="fill:#00002d;fill-opacity:1;stroke:none;stroke-width:.264583"/></g><path style="fill:#ececec;fill-opacity:1;stroke:none;stroke-width:.670172" id="path1046-9-3-1" d="m 345.30468,942.7613 c -3.90223,1.3e-4 -7.06558,3.16349 -7.0657,7.06572 -0.66628,2.79586 -2.86909,2.64333 -3.68305,2.67994 -2.25728,1.1e-4 -4.0872,-1.82982 -4.08707,-4.0871 7.9e-4,-0.0164 0.002,-0.0327 0.003,-0.0491 l -3.67987,-0.23976 2.27171,7.75044 9.8893,11.75999 19.24328,-0.26715 8.41912,-21.5155 -6.21821,1.01029 c 0.0329,0.21082 0.05,0.4238 0.0511,0.63717 -9e-5,2.36136 -1.91433,4.2756 -4.27569,4.27569 -1.61262,-2.6e-4 -3.08789,-0.90791 -3.81529,-2.34715 -0.20823,-3.74308 -3.30341,-6.67201 -7.05228,-6.67347 z"/><path style="fill:#ececec;fill-opacity:1;stroke:none;stroke-width:.670172" id="path1046-9-3-2-3" d="m 289.77143,943.16757 c -3.90223,1.3e-4 -7.06558,3.16349 -7.0657,7.06572 -0.66627,2.79586 -2.86908,2.64333 -3.68305,2.67994 -2.25728,1.1e-4 -4.08719,-1.82982 -4.08706,-4.0871 7.9e-4,-0.0164 0.002,-0.0327 0.003,-0.0491 l -3.67987,-0.23976 2.27171,7.75044 9.8893,11.75999 19.24328,-0.26715 8.41911,-21.5155 -6.2182,1.01029 c 0.0329,0.21082 0.05,0.4238 0.0511,0.63717 -9e-5,2.36136 -1.91433,4.2756 -4.27569,4.27569 -1.61262,-2.6e-4 -3.08789,-0.90791 -3.81529,-2.34715 -0.20823,-3.74308 -3.30341,-6.67201 -7.05228,-6.67347 z"/><ellipse style="fill:#ff0056;fill-opacity:1;fill-rule:evenodd;stroke-width:.264583" id="path1296-6" cx="275.121" cy="959.987" rx="6.922" ry="5.238"/><ellipse style="fill:#ff0056;fill-opacity:1;fill-rule:evenodd;stroke-width:.264583" id="path1296-6-1" cx="361.93" cy="959.987" rx="6.922" ry="5.238"/><circle style="fill:#ff004b;fill-opacity:1;stroke-width:.264583" id="path826-4-0-8-7-8" cx="318.576" cy="935.34" r="89.936"/><g id="g1002-7-6-4-7" transform="translate(4.6869087,823.15655)"><circle id="path826-3-46-8-6-8-2" cx="313.679" cy="112.183" r="93.678" style="fill:#acac00;fill-opacity:0;stroke-width:.275591"/><circle id="path826-3-4-3-4-6-4" cx="314.456" cy="112.448" r="93.678" style="fill:#0f3000;fill-opacity:0;stroke-width:.275591"/><path id="path894-8-5-4-6-8" d="m 311.64137,52.260417 c -34.784,0.464848 -73.94392,56.493923 -57.45238,87.123513 18.69522,34.72246 100.07698,34.96918 118.30654,0 16.37519,-31.41198 -25.43333,-87.596872 -60.85416,-87.123513 z" style="fill:#d6d6d6;fill-opacity:1;stroke:none;stroke-width:.264583px;stroke-linecap:butt;stroke-linejoin:miter;stroke-opacity:1"/><path id="path894-80-6-7-2" d="m 311.37627,52.260212 c -30.2398,0.432739 -64.28385,52.591648 -49.94677,81.105518 16.25286,32.32403 87.00288,32.5537 102.85092,0 14.23593,-29.24222 -22.11071,-81.54618 -52.90415,-81.105518 z" style="fill:#ececec;fill-opacity:1;stroke:none;stroke-width:.238023px;stroke-linecap:butt;stroke-linejoin:miter;stroke-opacity:1"/><circle id="path896-1-25-3-0-1" cx="285.278" cy="125.682" r="15.025" style="fill:#0073ff;fill-opacity:1;stroke:none;stroke-width:.359562"/><circle id="path896-12-2-55-2" cx="285.278" cy="125.682" r="11.056" style="fill:#00002d;fill-opacity:1;stroke:none;stroke-width:.264583"/><circle id="path896-1-2-3-2-48-4" cx="340.84" cy="125.418" r="15.025" style="fill:#0073ff;fill-opacity:1;stroke:none;stroke-width:.359562"/><circle id="path896-4-0-9-6-1" cx="340.462" cy="125.682" r="11.056" style="fill:#00002d;fill-opacity:1;stroke:none;stroke-width:.264583"/></g><path style="fill:#ececec;fill-opacity:1;stroke:none;stroke-width:.670172" id="path1046-9-3-1-1" d="m 345.30468,942.76133 c -3.90223,1.3e-4 -7.06558,3.16349 -7.06569,7.06573 -0.66629,2.79586 -2.8691,2.64332 -3.68305,2.67993 -2.25728,1.2e-4 -4.08721,-1.82981 -4.08708,-4.08709 8e-4,-0.0164 0.002,-0.0327 0.003,-0.0491 l -3.67987,-0.23976 2.27171,7.75044 9.88931,11.75999 19.24327,-0.26714 8.41912,-21.51551 -6.21821,1.01029 c 0.0329,0.21082 0.05,0.42381 0.0511,0.63717 -9e-5,2.36136 -1.91434,4.2756 -4.2757,4.27569 -1.61261,-2.6e-4 -3.08789,-0.90791 -3.81529,-2.34715 -0.20823,-3.74308 -3.3034,-6.672 -7.05228,-6.67347 z"/><path style="fill:#ececec;fill-opacity:1;stroke:none;stroke-width:.670172" id="path1046-9-3-2-3-7" d="m 289.77143,943.1676 c -3.90223,1.3e-4 -7.06558,3.1635 -7.0657,7.06572 -0.66627,2.79586 -2.86908,2.64333 -3.68305,2.67994 -2.25728,1.2e-4 -4.08719,-1.82981 -4.08706,-4.0871 8e-4,-0.0164 0.002,-0.0327 0.003,-0.0491 l -3.67987,-0.23976 2.27171,7.75044 9.8893,11.76 19.24328,-0.26715 8.41911,-21.51551 -6.2182,1.01029 c 0.0329,0.21082 0.05,0.42381 0.0511,0.63717 -9e-5,2.36137 -1.91433,4.2756 -4.27569,4.27569 -1.61262,-2.5e-4 -3.08789,-0.90791 -3.81529,-2.34715 -0.20823,-3.74307 -3.30341,-6.672 -7.05228,-6.67346 z"/></g><rect id="rect1067" width="221.862" height="46.86" x="423.775" y="268.507" ry="21.326" style="fill:#ff004b;fill-opacity:1;stroke:none;stroke-width:6.93921;stroke-linecap:round"/><rect id="rect1069" width="230.652" height="50.193" x="463.935" y="335.642" ry="21.326" style="fill:#ff004b;fill-opacity:1;stroke:none;stroke-width:6.93921;stroke-linecap:round"/><rect id="rect1071" width="102.629" height="51.056" x="470.392" y="408.826" ry="21.326" style="fill:#ff004b;fill-opacity:1;stroke:none;stroke-width:6.93921;stroke-linecap:round"/><rect id="rect1073" width="175.284" height="53.572" x="670.224" y="406.486" ry="21.326" style="fill:#d3d3d3;fill-opacity:1;stroke:none;stroke-width:6.93921;stroke-linecap:round"/><rect id="rect1075" width="255.063" height="52.082" x="596.859" y="481.879" ry="21.326" style="fill:#d3d3d3;fill-opacity:1;stroke:none;stroke-width:6.93921;stroke-linecap:round"/></svg>