<svg xmlns="http://www.w3.org/2000/svg" xmlns:svg="http://www.w3.org/2000/svg" id="svg160" width="1088" height="687.962" version="1.1" viewBox="0 0 1088 687.962"><metadata id="metadata166"/><path style="fill:#ff004b;fill-opacity:.16794641" id="Path_83" fill="#3f3d56" d="m 943.30781,477.19879 c -5.27,45.15 -16.22,81.4 -31.25,110.31 -20,38.52 -54.21,54.04 -84.77,70.28 a 193.275,193.275 0 0 1 -27.46,11.94 c -55.61,19.3 -117.85,14.18 -166.74,3.99 a 657.282,657.282 0 0 0 -104.09,-13.16 q -14.97,-0.675 -29.97,-0.67 c -15.42,0.02 -293.07,5.29 -360.67,-131.57 -16.69,-33.76 -28.13,-75 -32.24,-125.27 -11.629996,-142.12 52.29,-235.46 134.74,-296.47 155.97,-115.4099996 369.76,-110.5699996 523.43,7.88 102.36,78.9 198.2,198.31 179.02,362.74 z" data-name="Path 83"/><g id="g900" transform="matrix(3.5910718,0.96222481,-0.96222481,3.5910718,498.84164,-3324.5916)"><circle id="path826-4-0-8-7" cx="318.576" cy="935.34" r="89.936" style="fill:#ff004b;fill-opacity:1;stroke-width:.264583"/><g id="g1002-7-6-4" transform="translate(4.6869099,823.15654)"><circle style="fill:#acac00;fill-opacity:0;stroke-width:.275591" id="path826-3-46-8-6-8" cx="313.679" cy="112.183" r="93.678"/><circle style="fill:#0f3000;fill-opacity:0;stroke-width:.275591" id="path826-3-4-3-4-6" cx="314.456" cy="112.448" r="93.678"/><path style="fill:#d6d6d6;fill-opacity:1;stroke:none;stroke-width:.264583px;stroke-linecap:butt;stroke-linejoin:miter;stroke-opacity:1" id="path894-8-5-4-6" d="m 311.64137,52.260417 c -34.784,0.464848 -73.94392,56.493923 -57.45238,87.123513 18.69522,34.72246 100.07698,34.96918 118.30654,0 16.37519,-31.41198 -25.43333,-87.596872 -60.85416,-87.123513 z"/><path style="fill:#ececec;fill-opacity:1;stroke:none;stroke-width:.238023px;stroke-linecap:butt;stroke-linejoin:miter;stroke-opacity:1" id="path894-80-6-7" d="m 311.37627,52.260212 c -30.2398,0.432739 -64.28385,52.591648 -49.94677,81.105518 16.25286,32.32403 87.00288,32.5537 102.85092,0 14.23593,-29.24222 -22.11071,-81.54618 -52.90415,-81.105518 z"/><circle style="fill:#0073ff;fill-opacity:1;stroke:none;stroke-width:.359562" id="path896-1-25-3-0" cx="285.278" cy="125.682" r="15.025"/><circle style="fill:#00002d;fill-opacity:1;stroke:none;stroke-width:.264583" id="path896-12-2-55" cx="285.278" cy="125.682" r="11.056"/><circle style="fill:#0073ff;fill-opacity:1;stroke:none;stroke-width:.359562" id="path896-1-2-3-2-48" cx="340.84" cy="125.418" r="15.025"/><circle style="fill:#00002d;fill-opacity:1;stroke:none;stroke-width:.264583" id="path896-4-0-9-6" cx="340.462" cy="125.682" r="11.056"/></g><path id="path1046-9-3-1" d="m 345.30468,942.7613 c -3.90223,1.3e-4 -7.06558,3.16349 -7.0657,7.06572 -0.66628,2.79586 -2.86909,2.64333 -3.68305,2.67994 -2.25728,1.1e-4 -4.0872,-1.82982 -4.08707,-4.0871 7.9e-4,-0.0164 0.002,-0.0327 0.003,-0.0491 l -3.67987,-0.23976 2.27171,7.75044 9.8893,11.75999 19.24328,-0.26715 8.41912,-21.5155 -6.21821,1.01029 c 0.0329,0.21082 0.05,0.4238 0.0511,0.63717 -9e-5,2.36136 -1.91433,4.2756 -4.27569,4.27569 -1.61262,-2.6e-4 -3.08789,-0.90791 -3.81529,-2.34715 -0.20823,-3.74308 -3.30341,-6.67201 -7.05228,-6.67347 z" style="fill:#ececec;fill-opacity:1;stroke:none;stroke-width:.670172"/><path id="path1046-9-3-2-3" d="m 289.77143,943.16757 c -3.90223,1.3e-4 -7.06558,3.16349 -7.0657,7.06572 -0.66627,2.79586 -2.86908,2.64333 -3.68305,2.67994 -2.25728,1.1e-4 -4.08719,-1.82982 -4.08706,-4.0871 7.9e-4,-0.0164 0.002,-0.0327 0.003,-0.0491 l -3.67987,-0.23976 2.27171,7.75044 9.8893,11.75999 19.24328,-0.26715 8.41911,-21.5155 -6.2182,1.01029 c 0.0329,0.21082 0.05,0.4238 0.0511,0.63717 -9e-5,2.36136 -1.91433,4.2756 -4.27569,4.27569 -1.61262,-2.6e-4 -3.08789,-0.90791 -3.81529,-2.34715 -0.20823,-3.74308 -3.30341,-6.67201 -7.05228,-6.67347 z" style="fill:#ececec;fill-opacity:1;stroke:none;stroke-width:.670172"/><ellipse id="path1296-6" cx="275.121" cy="959.987" rx="6.922" ry="5.238" style="fill:#ff0056;fill-opacity:1;fill-rule:evenodd;stroke-width:.264583"/><ellipse id="path1296-6-1" cx="361.93" cy="959.987" rx="6.922" ry="5.238" style="fill:#ff0056;fill-opacity:1;fill-rule:evenodd;stroke-width:.264583"/><circle id="path826-4-0-8-7-8" cx="318.576" cy="935.34" r="89.936" style="fill:#ff004b;fill-opacity:1;stroke-width:.264583"/><g id="g1002-7-6-4-7" transform="translate(4.6869087,823.15655)"><circle style="fill:#acac00;fill-opacity:0;stroke-width:.275591" id="path826-3-46-8-6-8-2" cx="313.679" cy="112.183" r="93.678"/><circle style="fill:#0f3000;fill-opacity:0;stroke-width:.275591" id="path826-3-4-3-4-6-4" cx="314.456" cy="112.448" r="93.678"/><path style="fill:#d6d6d6;fill-opacity:1;stroke:none;stroke-width:.264583px;stroke-linecap:butt;stroke-linejoin:miter;stroke-opacity:1" id="path894-8-5-4-6-8" d="m 311.64137,52.260417 c -34.784,0.464848 -73.94392,56.493923 -57.45238,87.123513 18.69522,34.72246 100.07698,34.96918 118.30654,0 16.37519,-31.41198 -25.43333,-87.596872 -60.85416,-87.123513 z"/><path style="fill:#ececec;fill-opacity:1;stroke:none;stroke-width:.238023px;stroke-linecap:butt;stroke-linejoin:miter;stroke-opacity:1" id="path894-80-6-7-2" d="m 311.37627,52.260212 c -30.2398,0.432739 -64.28385,52.591648 -49.94677,81.105518 16.25286,32.32403 87.00288,32.5537 102.85092,0 14.23593,-29.24222 -22.11071,-81.54618 -52.90415,-81.105518 z"/><circle style="fill:#0073ff;fill-opacity:1;stroke:none;stroke-width:.359562" id="path896-1-25-3-0-1" cx="285.278" cy="125.682" r="15.025"/><circle style="fill:#00002d;fill-opacity:1;stroke:none;stroke-width:.264583" id="path896-12-2-55-2" cx="285.278" cy="125.682" r="11.056"/><circle style="fill:#0073ff;fill-opacity:1;stroke:none;stroke-width:.359562" id="path896-1-2-3-2-48-4" cx="340.84" cy="125.418" r="15.025"/><circle style="fill:#00002d;fill-opacity:1;stroke:none;stroke-width:.264583" id="path896-4-0-9-6-1" cx="340.462" cy="125.682" r="11.056"/></g><path id="path1046-9-3-1-1" d="m 345.30468,942.76133 c -3.90223,1.3e-4 -7.06558,3.16349 -7.06569,7.06573 -0.66629,2.79586 -2.8691,2.64332 -3.68305,2.67993 -2.25728,1.2e-4 -4.08721,-1.82981 -4.08708,-4.08709 8e-4,-0.0164 0.002,-0.0327 0.003,-0.0491 l -3.67987,-0.23976 2.27171,7.75044 9.88931,11.75999 19.24327,-0.26714 8.41912,-21.51551 -6.21821,1.01029 c 0.0329,0.21082 0.05,0.42381 0.0511,0.63717 -9e-5,2.36136 -1.91434,4.2756 -4.2757,4.27569 -1.61261,-2.6e-4 -3.08789,-0.90791 -3.81529,-2.34715 -0.20823,-3.74308 -3.3034,-6.672 -7.05228,-6.67347 z" style="fill:#ececec;fill-opacity:1;stroke:none;stroke-width:.670172"/><path id="path1046-9-3-2-3-7" d="m 289.77143,943.1676 c -3.90223,1.3e-4 -7.06558,3.1635 -7.0657,7.06572 -0.66627,2.79586 -2.86908,2.64333 -3.68305,2.67994 -2.25728,1.2e-4 -4.08719,-1.82981 -4.08706,-4.0871 8e-4,-0.0164 0.002,-0.0327 0.003,-0.0491 l -3.67987,-0.23976 2.27171,7.75044 9.8893,11.76 19.24328,-0.26715 8.41911,-21.51551 -6.2182,1.01029 c 0.0329,0.21082 0.05,0.42381 0.0511,0.63717 -9e-5,2.36137 -1.91433,4.2756 -4.27569,4.27569 -1.61262,-2.5e-4 -3.08789,-0.90791 -3.81529,-2.34715 -0.20823,-3.74307 -3.30341,-6.672 -7.05228,-6.67346 z" style="fill:#ececec;fill-opacity:1;stroke:none;stroke-width:.670172"/><ellipse id="path1296-6-2" cx="275.121" cy="959.987" rx="6.922" ry="5.238" style="fill:#ff0056;fill-opacity:1;fill-rule:evenodd;stroke-width:.264583"/><ellipse id="path1296-6-1-2" cx="361.93" cy="959.987" rx="6.922" ry="5.238" style="fill:#ff0056;fill-opacity:1;fill-rule:evenodd;stroke-width:.264583"/></g><g id="g1085" transform="rotate(-15,303.31679,948.74081)"><circle id="path1017" cx="369.437" cy="446.51" r="236.373" style="fill:#2e2e2e;stroke-width:6.38484;stroke-linecap:round;fill-opacity:1"/><g id="g1894" transform="matrix(3.1513047,0,0,3.1513047,48.217854,64.585286)"><path style="color:#000;display:inline;overflow:visible;visibility:visible;opacity:1;fill:#4e72ff;fill-opacity:1;fill-rule:nonzero;stroke:none;stroke-width:1;stroke-linecap:butt;stroke-linejoin:miter;stroke-miterlimit:4;stroke-dasharray:none;stroke-dashoffset:0;stroke-opacity:1;marker:none;marker-start:none;marker-mid:none;marker-end:none" id="path8615" d="M 99.75,67.46875 C 71.718268,67.468752 73.46875,79.625 73.46875,79.625 L 73.5,92.21875 h 26.75 V 96 H 62.875 c 0,0 -17.9375,-2.034276 -17.9375,26.25 -2e-6,28.28427 15.65625,27.28125 15.65625,27.28125 h 9.34375 v -13.125 c 0,0 -0.503652,-15.65625 15.40625,-15.65625 15.9099,0 26.53125,0 26.53125,0 0,0 14.90625,0.24096 14.90625,-14.40625 0,-14.647206 0,-24.21875 0,-24.21875 0,-2e-6 2.26318,-14.65625 -27.03125,-14.65625 z M 85,75.9375 c 2.661429,-2e-6 4.8125,2.151071 4.8125,4.8125 2e-6,2.661429 -2.151071,4.8125 -4.8125,4.8125 -2.661429,2e-6 -4.8125,-2.151071 -4.8125,-4.8125 -2e-6,-2.661429 2.151071,-4.8125 4.8125,-4.8125 z"/><path id="path8620" d="m 100.5461,177.31485 c 28.03174,0 26.28125,-12.15625 26.28125,-12.15625 l -0.0312,-12.59375 h -26.75 v -3.78125 h 37.375 c 0,0 17.9375,2.03427 17.9375,-26.25001 10e-6,-28.284267 -15.65625,-27.281247 -15.65625,-27.281247 h -9.34375 v 13.124997 c 0,0 0.50366,15.65625 -15.40625,15.65625 -15.909902,0 -26.531252,0 -26.531252,0 0,0 -14.90625,-0.24096 -14.90625,14.40626 0,14.6472 0,24.21875 0,24.21875 0,0 -2.26318,14.65625 27.031252,14.65625 z m 14.75,-8.46875 c -2.66143,0 -4.8125,-2.15107 -4.8125,-4.8125 0,-2.66143 2.15107,-4.8125 4.8125,-4.8125 2.66143,0 4.8125,2.15107 4.8125,4.8125 1e-5,2.66143 -2.15107,4.8125 -4.8125,4.8125 z" style="color:#000;display:inline;overflow:visible;visibility:visible;opacity:1;fill:#ffcb00;fill-opacity:1;fill-rule:nonzero;stroke:none;stroke-width:1;stroke-linecap:butt;stroke-linejoin:miter;stroke-miterlimit:4;stroke-dasharray:none;stroke-dashoffset:0;stroke-opacity:1;marker:none;marker-start:none;marker-mid:none;marker-end:none"/></g></g><g id="g1096" transform="rotate(22.747138,290.53698,161.75312)"><rect id="rect1091" width="141.882" height="178.547" x="262.189" y="67.912" rx="20.266" ry="23.506" style="fill:#00efef;fill-opacity:1;stroke-width:21.0009;stroke-linecap:round"/><text id="text1089" x="291.72" y="216.338" xml:space="preserve" style="font-style:normal;font-weight:400;font-size:153.615px;line-height:1.25;font-family:sans-serif;fill:#000;fill-opacity:1;stroke:none;stroke-width:3.84038"><tspan style="font-style:normal;font-variant:normal;font-weight:700;font-stretch:normal;font-family:'Fira Code';-inkscape-font-specification:'Fira Code Bold';fill:#000;fill-opacity:1;stroke-width:3.84038" id="tspan1087" x="291.72" y="216.338">3</tspan></text></g></svg>